<svg width="110" height="67" viewBox="0 0 110 67" fill="none" xmlns="http://www.w3.org/2000/svg">
<path d="M44.3418 12.1519C44.3418 15.1141 43.9609 18.161 43.1992 21.2925C42.4587 24.4028 41.4219 27.5026 40.0889 30.5918C38.777 33.681 37.2324 36.7067 35.4551 39.6689C33.6777 42.6312 31.7734 45.4347 29.7422 48.0796C27.7109 50.7244 25.5845 53.1577 23.3628 55.3794C21.1623 57.6011 18.9723 59.516 16.793 61.124C14.6136 62.7321 12.4977 63.9805 10.4453 64.8691C8.3929 65.779 6.49919 66.2339 4.76416 66.2339C4.21403 66.2339 3.70622 66.1281 3.24072 65.9165C2.77523 65.7261 2.38379 65.4722 2.06641 65.1548C1.72786 64.8374 1.46338 64.4671 1.27295 64.0439C1.08252 63.6419 0.987305 63.2188 0.987305 62.7744C0.987305 61.5049 1.44222 60.119 2.35205 58.6167C3.26188 57.1356 4.47852 55.6121 6.00195 54.0464C7.52539 52.5018 9.28158 50.9784 11.2705 49.4761C13.2594 47.9738 15.3436 46.5773 17.5229 45.2866C19.7023 43.9959 21.8923 42.8745 24.0928 41.9224C26.3145 40.9491 28.4092 40.2297 30.377 39.7642C32.3659 35.744 33.9528 31.4805 35.1377 26.9736C36.3438 22.4456 36.9468 17.6955 36.9468 12.7231C36.9468 11.0728 36.8621 9.68685 36.6929 8.56543C36.5236 7.44401 36.2909 6.55534 35.9946 5.89941C35.7196 5.22233 35.3916 4.74626 35.0107 4.47119C34.651 4.17497 34.2596 4.02686 33.8364 4.02686C33.4767 4.02686 33.0218 4.16439 32.4717 4.43945C31.9215 4.69336 31.3291 5.14827 30.6943 5.8042C30.0596 6.46012 29.4142 7.33822 28.7583 8.43848C28.1235 9.51758 27.5522 10.8717 27.0444 12.501C26.5366 14.1302 26.1134 16.0662 25.7749 18.3091C25.4575 20.5519 25.2988 23.1545 25.2988 26.1167C25.2988 27.2593 25.3411 28.349 25.4258 29.3857C25.5104 30.4225 25.6056 31.3853 25.7114 32.2739C25.8384 33.1626 25.9442 33.9666 26.0288 34.686C26.1134 35.4054 26.1558 36.019 26.1558 36.5269C26.1558 36.7173 26.1029 36.8971 25.9971 37.0664C25.8913 37.2145 25.7008 37.2886 25.4258 37.2886C24.6217 37.2886 23.86 37.0135 23.1406 36.4634C22.4212 35.9132 21.7865 35.2362 21.2363 34.4321C20.7074 33.6069 20.2842 32.7183 19.9668 31.7661C19.6706 30.814 19.5225 29.9253 19.5225 29.1001C19.5225 27.1112 19.7023 25.0164 20.062 22.8159C20.4429 20.5942 20.9824 18.4149 21.6807 16.2778C22.4001 14.1196 23.2782 12.0672 24.3149 10.1206C25.3517 8.17399 26.5366 6.46012 27.8696 4.979C29.2026 3.49788 30.6732 2.32357 32.2812 1.45605C33.9105 0.567383 35.6561 0.123047 37.5181 0.123047C38.4279 0.123047 39.2319 0.302897 39.9302 0.662598C40.6284 1.0223 41.2314 1.51953 41.7393 2.1543C42.2471 2.7679 42.6702 3.47673 43.0088 4.28076C43.3473 5.0848 43.6118 5.94173 43.8022 6.85156C43.9927 7.74023 44.1302 8.63949 44.2148 9.54932C44.2995 10.4591 44.3418 11.3267 44.3418 12.1519ZM21.6172 52.9673C22.9925 51.3804 24.2938 49.6982 25.521 47.9209C26.7694 46.1436 27.9331 44.271 29.0122 42.3032C25.6056 43.5939 22.6963 44.9692 20.2842 46.4292C17.8932 47.868 15.936 49.2751 14.4126 50.6504C12.9103 52.0257 11.8206 53.3058 11.1436 54.4907C10.4453 55.6756 10.0962 56.6383 10.0962 57.3789C10.0962 57.9925 10.3078 58.3945 10.731 58.585C11.133 58.7754 11.5985 58.8706 12.1274 58.8706C12.8045 58.8706 13.5557 58.7119 14.3809 58.3945C15.2061 58.0771 16.0312 57.6434 16.8564 57.0933C17.7028 56.5643 18.5386 55.9401 19.3638 55.2207C20.189 54.5225 20.9401 53.7713 21.6172 52.9673ZM65.6699 38.4629C65.2256 39.6478 64.6649 40.8856 63.9878 42.1763C63.3319 43.467 62.6019 44.6519 61.7979 45.731C60.9938 46.7889 60.1369 47.667 59.2271 48.3652C58.3172 49.0423 57.4074 49.3809 56.4976 49.3809C55.884 49.3809 55.3761 49.2327 54.9741 48.9365C54.5721 48.6191 54.2441 48.2383 53.9902 47.7939C53.7575 47.3285 53.5882 46.8312 53.4824 46.3022C53.3766 45.7733 53.3237 45.2866 53.3237 44.8423C53.3237 44.1652 53.3978 43.3823 53.5459 42.4937C53.7152 41.605 54.0326 40.5894 54.498 39.4468C53.7786 40.4201 53.0169 41.4146 52.2129 42.4302C51.43 43.4246 50.626 44.3239 49.8008 45.1279C48.9967 45.932 48.1821 46.5985 47.3569 47.1274C46.5529 47.6353 45.7912 47.8892 45.0718 47.8892C44.7332 47.8892 44.3735 47.8045 43.9927 47.6353C43.6118 47.4448 43.2627 47.1803 42.9453 46.8418C42.6068 46.4821 42.3317 46.0483 42.1201 45.5405C41.9085 45.0116 41.8027 44.4085 41.8027 43.7314C41.8027 42.5889 42.0672 41.3299 42.5962 39.9546C43.1252 38.5581 43.7917 37.1616 44.5957 35.7651C45.4209 34.3687 46.3307 33.0145 47.3252 31.7026C48.3197 30.3908 49.2824 29.2482 50.2134 28.2749C51.0597 27.3651 51.8532 26.5928 52.5938 25.958C53.3555 25.3232 54.0643 24.8154 54.7202 24.4346C55.3973 24.0326 56.0321 23.7469 56.6245 23.5776C57.217 23.3872 57.7882 23.2814 58.3384 23.2603C58.8462 23.2603 59.2694 23.3237 59.6079 23.4507C59.9465 23.5565 60.2109 23.7046 60.4014 23.895C60.5918 24.0854 60.7188 24.3076 60.7822 24.5615C60.8669 24.8154 60.9092 25.0799 60.9092 25.355C60.9092 25.6512 60.8245 26.0321 60.6553 26.4976C60.486 26.9631 60.2533 27.4285 59.957 27.894C59.6608 28.3595 59.3117 28.7616 58.9097 29.1001C58.5288 29.4175 58.1162 29.5762 57.6719 29.5762C57.5026 29.5762 57.3968 29.5127 57.3545 29.3857C57.3122 29.2588 57.291 29.1001 57.291 28.9097C57.291 28.55 57.3333 28.1268 57.418 27.6401C57.5026 27.1535 57.5449 26.7303 57.5449 26.3706C57.5449 26.0532 57.5026 25.8311 57.418 25.7041C57.3545 25.556 57.2064 25.4819 56.9736 25.4819C56.4235 25.7147 55.8311 26.1696 55.1963 26.8467C54.5827 27.5026 53.9691 28.2855 53.3555 29.1953C52.7419 30.084 52.1494 31.0573 51.5781 32.1152C51.028 33.152 50.5308 34.1888 50.0864 35.2256C49.6632 36.2412 49.3247 37.2145 49.0708 38.1455C48.8169 39.0553 48.6899 39.8171 48.6899 40.4307C48.6899 40.875 48.7534 41.2241 48.8804 41.478C49.0073 41.7319 49.166 41.8589 49.3564 41.8589C49.5046 41.8589 49.7373 41.7214 50.0547 41.4463C50.3721 41.1712 50.7318 40.8115 51.1338 40.3672C51.557 39.9229 51.9907 39.4256 52.4351 38.8755C52.8794 38.3042 53.3132 37.7435 53.7363 37.1934C54.1807 36.6432 54.5827 36.1248 54.9424 35.6382C55.3021 35.1515 55.5877 34.7495 55.7993 34.4321C56.3494 33.6281 56.7303 33.0039 56.9419 32.5596C57.1746 32.1152 57.418 31.8931 57.6719 31.8931C57.7777 31.8931 57.9258 31.9777 58.1162 32.147C58.3278 32.3162 58.5288 32.5173 58.7192 32.75C58.9308 32.9616 59.1107 33.1838 59.2588 33.4165C59.4069 33.6493 59.481 33.8185 59.481 33.9243C59.481 34.2205 59.3434 34.6437 59.0684 35.1938C58.7933 35.7228 58.4124 36.5798 57.9258 37.7646C57.3757 39.0342 56.9631 40.2191 56.688 41.3193C56.4341 42.4196 56.3071 43.3929 56.3071 44.2393C56.3071 44.5355 56.3283 44.8317 56.3706 45.1279C56.4129 45.4242 56.487 45.6992 56.5928 45.9531C56.6986 46.1859 56.8467 46.3869 57.0371 46.5562C57.2275 46.7043 57.4814 46.7783 57.7988 46.7783C58.3066 46.7783 58.825 46.5773 59.354 46.1753C59.9041 45.7521 60.4225 45.2231 60.9092 44.5884C61.417 43.9536 61.8931 43.2765 62.3374 42.5571C62.7817 41.8166 63.1732 41.1183 63.5117 40.4624C63.8503 39.8065 64.1147 39.2563 64.3052 38.812C64.5168 38.3465 64.6437 38.082 64.686 38.0186C64.8553 37.68 65.0563 37.5107 65.2891 37.5107C65.416 37.5107 65.5324 37.5531 65.6382 37.6377C65.744 37.7223 65.7969 37.8493 65.7969 38.0186C65.7969 38.1455 65.7546 38.2936 65.6699 38.4629Z" fill="#F98113"/>
<path d="M86.4268 5.01074C86.4268 5.96289 86.2152 7.12663 85.792 8.50195C85.39 9.87728 84.8081 11.4113 84.0464 13.104C83.3058 14.7756 82.4066 16.5846 81.3486 18.5312C80.2907 20.4779 79.1164 22.4985 77.8257 24.5933C76.5562 26.6668 75.1808 28.7827 73.6997 30.9409C72.2186 33.078 70.674 35.1938 69.0659 37.2886C69.0024 37.9022 68.9601 38.5052 68.939 39.0977C68.939 39.6689 68.939 40.2191 68.939 40.748C68.939 41.5521 68.9707 42.2821 69.0342 42.938C69.0977 43.5728 69.214 44.1335 69.3833 44.6201C69.5737 45.0856 69.8276 45.4453 70.145 45.6992C70.4624 45.9531 70.8644 46.0801 71.3511 46.0801C71.7531 46.0801 72.1657 45.9425 72.5889 45.6675C73.0332 45.3713 73.467 44.9904 73.8901 44.5249C74.3133 44.0594 74.7153 43.5304 75.0962 42.938C75.4982 42.3455 75.8685 41.7531 76.207 41.1606C76.5456 40.5682 76.8524 39.9969 77.1274 39.4468C77.4025 38.8966 77.6141 38.4206 77.7622 38.0186C77.868 37.7858 77.9844 37.6483 78.1113 37.606C78.2594 37.5425 78.3652 37.5107 78.4287 37.5107C78.5557 37.5107 78.6615 37.5636 78.7461 37.6694C78.8307 37.7752 78.873 37.9128 78.873 38.082C78.873 38.1667 78.8307 38.2936 78.7461 38.4629C78.0267 40.1768 77.2544 41.7637 76.4292 43.2236C75.604 44.6836 74.7576 45.9425 73.8901 47.0005C73.0226 48.0584 72.1551 48.8836 71.2876 49.4761C70.4412 50.0685 69.6372 50.3647 68.8755 50.3647C68.283 50.3647 67.7118 50.2378 67.1616 49.9839C66.6115 49.73 66.1143 49.3068 65.6699 48.7144C65.2467 48.1219 64.9082 47.339 64.6543 46.3657C64.3792 45.3713 64.2417 44.144 64.2417 42.6841C64.2417 40.674 64.4533 38.6004 64.8765 36.4634C65.2785 34.3052 65.818 32.1681 66.4951 30.0522C67.1722 27.9152 67.9339 25.8311 68.7803 23.7998C69.6478 21.7686 70.5259 19.8537 71.4146 18.0552C72.3032 16.2567 73.1707 14.6169 74.0171 13.1357C74.8634 11.6546 75.6146 10.3957 76.2705 9.35889C77.0111 8.17399 77.7305 7.09489 78.4287 6.12158C79.1481 5.14827 79.8252 4.32308 80.46 3.646C81.1159 2.94775 81.7401 2.41878 82.3325 2.05908C82.925 1.67822 83.4857 1.48779 84.0146 1.48779C84.7975 1.48779 85.39 1.81576 85.792 2.47168C86.2152 3.10645 86.4268 3.9528 86.4268 5.01074ZM70.5576 29.5127C70.3037 30.4648 70.071 31.3747 69.8594 32.2422C69.6689 33.1097 69.5103 33.9455 69.3833 34.7495C71.3934 31.8084 73.1602 28.9943 74.6836 26.3071C76.207 23.62 77.4766 21.1867 78.4922 19.0073C79.5078 16.8068 80.2695 14.9237 80.7773 13.3579C81.2852 11.771 81.5391 10.6073 81.5391 9.8667C81.5391 9.44352 81.4862 9.15788 81.3804 9.00977C81.2746 8.84049 81.0947 8.75586 80.8408 8.75586C80.5234 8.75586 80.1003 9.0944 79.5713 9.77148C79.0423 10.4274 78.4604 11.3055 77.8257 12.4058C77.1909 13.506 76.5244 14.7756 75.8262 16.2144C75.1279 17.632 74.4508 19.1131 73.7949 20.6577C73.139 22.2023 72.5254 23.7469 71.9541 25.2915C71.3828 26.8149 70.9173 28.222 70.5576 29.5127ZM95.25 11.6758C95.1019 11.9508 94.848 12.4269 94.4883 13.104C94.1497 13.7599 93.7371 14.564 93.2505 15.5161C92.7638 16.4683 92.2243 17.5368 91.6318 18.7217C91.0394 19.8854 90.4258 21.1126 89.791 22.4033C90.7432 22.3398 91.6001 22.2764 92.3618 22.2129C93.1447 22.1283 93.7054 22.0859 94.0439 22.0859C94.1497 22.0859 94.2238 22.1283 94.2661 22.2129C94.3296 22.2764 94.3613 22.361 94.3613 22.4668C94.3613 22.6361 94.3084 22.8159 94.2026 23.0063C94.118 23.1968 94.0439 23.3449 93.9805 23.4507C93.7266 23.8315 93.4515 24.2336 93.1553 24.6567C92.8802 25.0588 92.584 25.4396 92.2666 25.7993C91.9492 26.159 91.6213 26.4658 91.2827 26.7197C90.9442 26.9736 90.5845 27.1217 90.2036 27.1641C89.5265 27.291 88.6167 27.291 87.4741 27.1641C86.9451 28.2432 86.4268 29.3223 85.9189 30.4014C85.4323 31.4593 84.9668 32.4749 84.5225 33.4482C84.0993 34.4215 83.7078 35.342 83.3481 36.2095C83.0096 37.0558 82.7134 37.807 82.4595 38.4629C81.867 40.1133 81.3592 41.5203 80.936 42.6841C80.5129 43.8267 80.3013 44.8317 80.3013 45.6992C80.3013 46.2493 80.4494 46.7043 80.7456 47.064C81.063 47.4025 81.592 47.5718 82.3325 47.5718C82.8192 47.5718 83.4116 47.2967 84.1099 46.7466C84.8293 46.1753 85.5698 45.4347 86.3315 44.5249C87.0933 43.6151 87.8444 42.5889 88.585 41.4463C89.3255 40.3037 89.9709 39.1611 90.521 38.0186C90.6903 37.68 90.8807 37.5107 91.0923 37.5107C91.2404 37.5107 91.3674 37.5531 91.4731 37.6377C91.5789 37.7223 91.6318 37.8493 91.6318 38.0186C91.6318 38.1455 91.5895 38.2936 91.5049 38.4629C90.7432 40.1344 89.9074 41.7108 88.9976 43.1919C88.0877 44.6519 87.1462 45.932 86.1729 47.0322C85.1995 48.1113 84.2051 48.9683 83.1895 49.603C82.195 50.2378 81.2111 50.5552 80.2378 50.5552C78.8625 50.5552 77.8786 50.1743 77.2861 49.4126C76.6725 48.6509 76.3657 47.54 76.3657 46.0801C76.3657 45.0221 76.4821 43.8796 76.7148 42.6523C76.9264 41.4251 77.2756 40.0392 77.7622 38.4946C78.2489 36.95 78.8942 35.2044 79.6982 33.2578C80.5023 31.3112 81.4862 29.0789 82.6499 26.561C82.1632 26.4552 81.6978 26.36 81.2534 26.2754C80.8091 26.1908 80.4071 26.0955 80.0474 25.9897C79.7935 25.9263 79.5924 25.884 79.4443 25.8628C79.2962 25.8416 79.2222 25.7782 79.2222 25.6724C79.2222 25.4396 79.2856 25.228 79.4126 25.0376C79.5607 24.8472 79.7511 24.625 79.9839 24.3711C80.0897 24.2018 80.2166 24.0008 80.3647 23.7681C80.534 23.5353 80.735 23.3872 80.9678 23.3237C81.137 23.2814 81.5285 23.2179 82.1421 23.1333C82.7769 23.0487 83.5597 22.9429 84.4907 22.8159C85.3794 20.9751 86.3421 19.0179 87.3789 16.9443C88.4157 14.8496 89.5688 12.575 90.8384 10.1206C91.0711 9.67627 91.3145 9.25309 91.5684 8.85107C91.8223 8.4279 92.0762 8.05762 92.3301 7.74023C92.584 7.42285 92.8273 7.16895 93.0601 6.97852C93.314 6.78809 93.5467 6.69287 93.7583 6.69287C94.0122 6.69287 94.2555 6.81982 94.4883 7.07373C94.721 7.30648 94.9115 7.6027 95.0596 7.9624C95.2288 8.3221 95.3558 8.70296 95.4404 9.10498C95.5462 9.48584 95.5991 9.82438 95.5991 10.1206C95.5991 10.5226 95.5674 10.84 95.5039 11.0728C95.4404 11.2843 95.3558 11.4854 95.25 11.6758ZM95.1548 40.875C95.1548 41.6156 95.2394 42.335 95.4087 43.0332C95.578 43.7314 95.8213 44.3556 96.1387 44.9058C96.4772 45.4347 96.9004 45.8685 97.4082 46.207C97.9372 46.5456 98.5508 46.7148 99.249 46.7148C100.222 46.7148 101.164 46.4715 102.074 45.9849C103.005 45.4771 103.872 44.8211 104.676 44.0171C105.501 43.2131 106.242 42.2926 106.898 41.2559C107.575 40.1979 108.146 39.1188 108.612 38.0186C108.675 37.8493 108.76 37.7223 108.866 37.6377C108.972 37.5531 109.077 37.5107 109.183 37.5107C109.331 37.5107 109.458 37.5531 109.564 37.6377C109.67 37.7012 109.723 37.8281 109.723 38.0186C109.723 38.082 109.712 38.1455 109.691 38.209C109.67 38.2725 109.638 38.3571 109.596 38.4629C109.151 39.5632 108.517 40.7798 107.691 42.1128C106.866 43.4458 105.872 44.6942 104.708 45.8579C103.565 47.0005 102.275 47.9632 100.836 48.7461C99.3971 49.529 97.8525 49.9204 96.2021 49.9204C95.25 49.9204 94.3613 49.73 93.5361 49.3491C92.7321 48.9894 92.0233 48.471 91.4097 47.7939C90.7961 47.1169 90.32 46.2917 89.9814 45.3184C89.6217 44.3239 89.4419 43.2131 89.4419 41.9858C89.4419 40.7586 89.6323 39.4574 90.0132 38.082C90.394 36.6855 90.9124 35.3102 91.5684 33.9561C92.2454 32.6019 93.0389 31.3006 93.9487 30.0522C94.8586 28.8039 95.8424 27.7036 96.9004 26.7515C97.9583 25.7993 99.0692 25.0482 100.233 24.498C101.397 23.9268 102.56 23.6411 103.724 23.6411C104.719 23.6411 105.449 23.9691 105.914 24.625C106.401 25.2809 106.644 26.1696 106.644 27.291C106.644 28.1797 106.443 29.0155 106.041 29.7983C105.66 30.5812 105.195 31.2583 104.645 31.8296C104.116 32.4009 103.576 32.8558 103.026 33.1943C102.497 33.5117 102.084 33.6704 101.788 33.6704C101.534 33.6704 101.407 33.554 101.407 33.3213C101.407 33.2367 101.471 33.0674 101.598 32.8135C101.788 32.4326 101.979 32.02 102.169 31.5757C102.381 31.1102 102.56 30.6553 102.708 30.2109C102.878 29.7666 103.015 29.3328 103.121 28.9097C103.227 28.4865 103.28 28.1162 103.28 27.7988C103.28 27.1217 102.973 26.7832 102.359 26.7832C101.915 26.7832 101.428 26.9736 100.899 27.3545C100.392 27.7354 99.8626 28.2537 99.3125 28.9097C98.7835 29.5656 98.2651 30.3485 97.7573 31.2583C97.2707 32.147 96.8263 33.1203 96.4243 34.1782C96.0435 35.215 95.7367 36.3047 95.5039 37.4473C95.2712 38.5898 95.1548 39.7324 95.1548 40.875Z" fill="#1170C8"/>
</svg>
